#!OML:ASF H:\Terrain\Patient Classification 1\Terrain2\Thursday\justin.ASF
:FULLY-SPECIFIED
:DEGREES
3725
root -0.993774 20.4429 -11.3911 900.3 -179.026 -181.119
lowerback 5.37877 0.719233 0.74231
upperback 1.41978 1.03428 1.97185
thorax -1.57825 0.514726 1.54057
lowerneck -11.549 -1.20791 -8.92204
upperneck 39.345 -0.476894 3.25431
head 15.9759 -1.07253 2.94639
rclavicle 6.31141e-015 1.19271e-015
rhumerus -32.1064 -5.6708 -83.9104
rradius 33.4669
rwrist -9.78269
rhand -21.2521 13.9356
rfingers 7.12502
rthumb 5.13096 -15.9823
lclavicle 6.31141e-015 1.19271e-015
lhumerus -32.0818 9.62128 82.8945
lradius 27.0072
lwrist 2.2747
lhand -15.9903 22.1629
lfingers 7.12502
lthumb 10.2095 51.8951
rfemur -9.71446 -4.63706 22.3952
rtibia 36.1863
rfoot -21.9994 -0.726763
rtoes 4.79389
lfemur -10.5097 0.0203943 -17.6265
ltibia 29.6763
lfoot -15.5 -18.1981
ltoes 13.7148
3726
root -1.02494 20.4402 -11.3736 900.236 -178.922 -181.33
lowerback 5.42113 0.812797 0.991941
upperback 1.49146 1.17028 1.90106
thorax -1.52469 0.581897 1.31853
lowerneck -11.5909 -1.19794 -8.65305
upperneck 39.2851 -0.468858 3.09461
head 15.9511 -1.04801 2.82796
rclavicle -3.72721e-015 2.78299e-015
rhumerus -31.9494 -5.87389 -84.0117
rradius 33.1296
rwrist -9.83943
rhand -21.2582 14.4045
rfingers 7.12502
rthumb 5.12506 -15.5135
lclavicle -3.72721e-015 2.78299e-015
lhumerus -32.0079 9.74392 82.6349
lradius 27.0026
lwrist 2.24312
lhand -16.0808 21.4564
lfingers 7.12502
lthumb 10.1222 51.1929
rfemur -9.3876 -4.78847 22.7691
rtibia 35.8806
rfoot -22.1152 -0.608372
rtoes 5.62687
lfemur -10.4946 -0.264561 -17.2851
ltibia 30.0078
lfoot -15.6337 -17.973
ltoes 13.5145
3727
root -1.05988 20.4337 -11.3566 900.139 -178.828 -181.717
lowerback 5.54195 0.912714 1.33181
upperback 1.57994 1.32395 1.97532
thorax -1.49761 0.657936 1.19295
lowerneck -11.7221 -1.25372 -8.69207
upperneck 39.1968 -0.501335 3.03699
head 15.9419 -1.07126 2.80293
rclavicle -1.12313e-014 2.78299e-015
rhumerus -31.7357 -6.09718 -83.9072
rradius 32.7751
rwrist -9.74813
rhand -21.2542 14.8872
rfingers 7.12502
rthumb 5.12891 -15.0307
lclavicle -1.12313e-014 2.78299e-015
lhumerus -31.872 9.94854 82.4867
lradius 26.9354
lwrist 1.94855
lhand -15.9009 20.9033
lfingers 7.12502
lthumb 10.2957 50.6313
rfemur -8.99886 -4.85862 23.3515
rtibia 35.5305
rfoot -22.0755 -0.659456
rtoes 5.44187
lfemur -10.4959 -0.343189 -16.7358
ltibia 30.4086
lfoot -15.9259 -17.741
ltoes 11.433
3728
root -1.09503 20.4241 -11.3406 900.127 -178.81 -182.088
lowerback 5.64511 1.00113 1.6644
upperback 1.56442 1.46491 2.05024
thorax -1.56625 0.727361 1.07207
lowerneck -11.8454 -1.31007 -8.71985
upperneck 39.2831 -0.555629 3.02644
head 16.023 -1.10089 2.79822
rclavicle -1.83876e-015 8.34896e-015
rhumerus -31.6762 -6.29264 -83.769
rradius 32.6006
rwrist -9.77166
rhand -21.3657 14.5431
rfingers 7.12502
rthumb 5.02123 -15.3774
lclavicle -1.83876e-015 8.34896e-015
lhumerus -31.8655 9.91776 82.4623
lradius 26.9151
lwrist 1.93424
lhand -15.957 21.1314
lfingers 7.12502
lthumb 10.2416 50.8621
rfemur -8.70178 -5.02989 23.9112
rtibia 35.1527
rfoot -22.1352 -0.786416
rtoes 4.26096
lfemur -10.6606 -0.454733 -16.2223
ltibia 30.8696
lfoot -16.2229 -17.3691
ltoes 8.91578
3729
root -1.12457 20.4129 -11.3223 900.186 -178.765 -182.313
lowerback 5.56887 1.03448 1.93379
upperback 1.58105 1.52139 2.0519
thorax -1.49998 0.755396 0.920709
lowerneck -11.926 -1.29257 -8.73303
upperneck 39.284 -0.517901 3.03791
head 16.0401 -1.08509 2.8125
rclavicle -3.29983e-014 4.37326e-015
rhumerus -31.6137 -6.24996 -83.7771
rradius 32.569
rwrist -9.88128
rhand -21.5303 14.2329
rfingers 7.12502
rthumb 4.86229 -15.6913
lclavicle -3.29983e-014 4.37326e-015
lhumerus -31.915 10.047 82.3518
lradius 26.9616
lwrist 1.98302
lhand -16.4166 21.0277
lfingers 7.12502
lthumb 9.79826 50.7797
rfemur -8.43023 -5.22199 24.2388
rtibia 34.7389
rfoot -22.4693 -0.518579
rtoes 4.9488
lfemur -10.917 -0.850815 -15.9244
ltibia 31.422
lfoot -16.398 -16.8046
ltoes 7.75951
3730
root -1.15255 20.402 -11.3077 900.192 -178.707 -182.529
lowerback 5.63475 0.987689 2.14789
upperback 1.59411 1.47412 2.11884
thorax -1.51943 0.731281 0.87178
lowerneck -11.9874 -1.18582 -8.84334
upperneck 39.2374 -0.295188 2.98683
head 16.0139 -1.01401 2.84505
rclavicle -1.63997e-015 5.96354e-015
rhumerus -31.5634 -5.90554 -83.7889
rradius 32.713
rwrist -9.97822
rhand -21.4353 13.8018
rfingers 7.12502
rthumb 4.95404 -16.1202
lclavicle -1.63997e-015 5.96354e-015
lhumerus -32.1417 10.5238 82.1373
lradius 27.1132
lwrist 1.51255
lhand -16.4725 20.6263
lfingers 7.12502
lthumb 9.74433 50.3809
rfemur -8.09429 -5.21524 24.5201
rtibia 34.2867
rfoot -22.7663 -0.126709
rtoes 6.95468
lfemur -11.1421 -1.23023 -15.6524
ltibia 32.0611
lfoot -16.5199 -16.3426
ltoes 8.16982
3731
root -1.18265 20.3966 -11.2921 900.228 -178.662 -182.812
lowerback 5.7463 0.916443 2.36586
upperback 1.50245 1.40105 2.22922
thorax -1.67339 0.692913 0.865417
lowerneck -11.8613 -1.02187 -8.81352
upperneck 39.2485 0.0129193 2.78143
head 15.9647 -0.909128 2.79866
rclavicle 3.47873e-015 -1.74931e-014
rhumerus -31.5782 -5.63384 -83.7509
rradius 32.6541
rwrist -9.81394
rhand -21.3259 13.4025
rfingers 7.12502
rthumb 5.05968 -16.5171
lclavicle 3.47873e-015 -1.74931e-014
lhumerus -32.539 10.8305 81.9444
lradius 27.3017
lwrist 1.22874
lhand -16.2699 20.491
lfingers 7.12502
lthumb 9.93977 50.2364
rfemur -7.7799 -5.08324 24.8939
rtibia 33.7765
rfoot -22.8679 0.0569302
rtoes 7.89914
lfemur -11.5035 -1.31421 -15.2787
ltibia 32.8362
lfoot -16.6244 -16.2344
ltoes 9.32162
3732
root -1.21476 20.3886 -11.2711 900.282 -178.649 -183.133
lowerback 5.69857 0.918742 2.64542
upperback 1.45788 1.42128 2.30262
thorax -1.68756 0.701911 0.783504
lowerneck -11.6772 -0.982507 -8.79286
upperneck 39.17 0.0678968 2.7267
head 15.8748 -0.887434 2.77593
rclavicle 2.32578e-014 -5.96354e-015
rhumerus -31.4787 -5.69441 -83.6787
rradius 32.1472
rwrist -9.56955
rhand -21.5239 13.9555
rfingers 7.12502
rthumb 4.86849 -15.9686
lclavicle 2.32578e-014 -5.96354e-015
lhumerus -32.6752 10.8434 81.8644
lradius 27.3323
lwrist 1.46015
lhand -16.4794 21.2512
lfingers 7.12502
lthumb 9.73763 51.0061
rfemur -7.40699 -5.07783 25.3
rtibia 33.1934
rfoot -22.98 0.305301
rtoes 8.38003
lfemur -11.9739 -1.40041 -14.8461
ltibia 33.7957
lfoot -16.5773 -16.2285
ltoes 10.52
3733
root -1.24564 20.3688 -11.2567 900.26 -178.732 -183.47
lowerback 5.77835 0.989369 3.07131
upperback 1.45188 1.54357 2.29021
thorax -1.72579 0.761086 0.522545
lowerneck -11.6395 -1.0854 -8.82322
upperneck 39.1242 -0.158459 2.92541
head 15.8583 -0.957512 2.83055
rclavicle -1.20265e-014 -1.59028e-014
rhumerus -31.4541 -6.04765 -83.5929
rradius 31.8223
rwrist -9.36764
rhand -21.6064 14.5807
rfingers 7.12502
rthumb 4.78879 -15.3452
lclavicle -1.20265e-014 -1.59028e-014
lhumerus -32.7539 10.5358 81.8872
lradius 27.4205
lwrist 2.06059
lhand -17.1882 21.6798
lfingers 7.12502
lthumb 9.05378 51.4655
rfemur -6.92679 -5.10705 25.732
rtibia 32.5431
rfoot -23.0569 0.528504
rtoes 8.70935
lfemur -12.4575 -1.65065 -14.3919
ltibia 34.9333
lfoot -16.4055 -16.0687
ltoes 11.5182
